<svg
  class="icon" style="" viewBox="0 0 36 36" version="1.1" width="36" height="36" id="svg8">
  <path
      style=""
      d="M 10,32.5 C 10,30.309524 9.5666667,30 6.5,30 H 3 V 18.196167 6.3923336 L 6.2976072,3.1961668 9.5952145,0 H 21.297607 33 v 9.2813035 9.2813035 l -5.778997,5.718696 C 23.230948,28.229724 20.653654,30 18.895317,30 17.471816,30 15.312792,31.102597 14,32.5 12.708255,33.875 11.279813,35 10.825686,35 10.371559,35 10,33.875 10,32.5 Z M 23.12736,22 c 1.432033,0 3.645397,-1.197147 5.185549,-2.804719 C 30.682196,16.722278 31,15.598708 31,9.6952811 V 3 H 20.5 10 v 9.5 9.5 h 3 c 2.413503,0 3,0.425076 3,2.174314 v 2.174314 l 2.314451,-2.174314 C 19.587399,22.978441 21.753208,22 23.12736,22 Z M 17.666667,14.333333 C 17.3,13.966667 17,12.166667 17,10.333333 17,8.037037 17.466667,7 18.5,7 c 1.083333,0 1.5,1.1111111 1.5,4 0,3.753437 -0.7878,4.878866 -2.333333,3.333333 z m 6.722867,-0.760607 C 23.554137,11.395717 24.34722,7.7069709 25.75,7.2449946 26.613128,6.9607414 27,8.097114 27,10.916667 c 0,3.979702 -1.51214,5.518252 -2.610466,2.656059 z"
      id="rect824"/>
</svg>
