<?xml version="1.0" standalone="no"?><!DOCTYPE svg PUBLIC "-//W3C//DTD SVG 1.1//EN" "http://www.w3.org/Graphics/SVG/1.1/DTD/svg11.dtd"><svg t="1521937850980" class="icon" style="" viewBox="0 0 1264 1024" version="1.1" xmlns="http://www.w3.org/2000/svg" p-id="3448" xmlns:xlink="http://www.w3.org/1999/xlink" width="158" height="128"><defs><style type="text/css"></style></defs><path d="M1229.8616 18.043658c0 0-117.852626 63.135335-164.151872 67.344358-105.225559-164.151872-505.082682-92.598492-437.738325 223.078185C278.622548 312.675223 89.216542 47.506814 89.216542 47.506814s-117.852626 189.406006 75.762402 345.139833C127.097743 396.85567 55.544363 371.601535 55.544363 371.601535S26.081207 535.753407 253.368414 615.724832c-21.045112 29.463156-113.643603 8.418045-113.643603 8.418045s25.254134 143.10676 231.496229 180.987961c-143.10676 130.479693-387.230056 92.598492-370.393967 105.225559 206.242095 189.406006 1119.599946 231.496229 1128.01799-643.98042C1179.353331 249.539887 1263.533778 123.269217 1263.533778 123.269217s-130.479693 37.881201-138.897738 33.672179C1225.652577 98.015083 1229.8616 18.043658 1229.8616 18.043658" p-id="3449"></path></svg>