<svg xmlns="http://www.w3.org/2000/svg" viewBox="0 0 32 32" fill="none" preserveAspectRatio="xMidYMid meet" aria-hidden="true" role="img" class="icon" width="36" height="36">
  <path fill-rule="evenodd" clip-rule="evenodd" d="M0.487305 9C0.487305 4.0625 4.47168 0 9.50743 0H16.9672C21.9489 0 25.9873 4.01832 25.9873 9C25.9814 11.683 24.8096 13.9941 23.1787 15.5312L21.4697 17.2344C23.9585 18.6864 25.9667 20.9645 25.9667 24.0537C25.9667 28.6795 22.2167 32 17.5908 32H4.9873V16.7969C2.32324 15.2422 0.487305 12.3346 0.487305 9ZM9.50743 2.5C5.8623 2.5 2.9873 5.42969 2.9873 9C2.9873 12.5703 5.8623 15.5 9.50743 15.5H12.6131L10.8857 24.2344L21.4228 13.752C22.6299 12.627 23.4873 10.9252 23.4873 9C23.4873 5.375 20.5186 2.46094 16.9672 2.5H9.50743Z" fill="currentColor"></path>
</svg>
