<svg class="icon" viewBox="0 0 933.33331 933.33331"
    xmlns="http://www.w3.org/2000/svg"
    width="36" height="36">
    <defs>
        <clipPath id="a" clipPathUnits="userSpaceOnUse">
            <path d="M0 700h700V0H0Z" />
        </clipPath>
    </defs>
    <g clip-path="url(#a)" transform="matrix(1.86667 0 0 -1.86667 -186.666138 1119.999023)">
        <path
            d="M600 350c0 138.071-111.929 250-250 250S100 488.071 100 350c0-117.245 80.715-215.622 189.606-242.638v166.242h-51.552V350h51.552v32.919c0 85.092 38.508 124.532 122.048 124.532 15.838 0 43.167-3.105 54.347-6.211v-69.254c-5.901.621-16.149.932-28.882.932-40.993 0-56.832-15.528-56.832-55.9V350h81.659l-14.028-76.396h-67.631V101.831C504.073 116.782 600 222.182 600 350" />
    </g>
</svg>
      