<svg class="icon" viewBox="0 0 192 192"
    xmlns="http://www.w3.org/2000/svg"
    width="36" height="36">
    <path
        d="M163.64266258 163.63746738H134.7786633v-50.08439875c0-14.77599963-6.28173318-19.33333285-14.38439964-19.33333285-8.56399979 0-16.96253291 6.44533317-16.96253291 19.7015995v49.7161321H74.56719814V71.939603h27.75933264v12.70466635h.36826665c2.79319993-5.6453332 12.54319969-15.28279962 27.43639932-15.28279962 16.10613293 0 33.51146583 9.5541331 33.51146583 37.5625324zM42.79479893 59.16306998c-9.1917331 0-16.64213292-6.99506648-16.64213292-16.56839958 0-9.5733331 7.45039982-16.57599958 16.64213292-16.57599958 9.19066644 0 16.64159958 7.00266649 16.64159958 16.57599958 0 9.5733331-7.45093314 16.56839959-16.64159958 16.56839959zm14.4322663 104.4051974h-28.8645326V71.868803h28.8645326ZM177.83199556.0000048H14.17346631c-7.8281598 0-14.17294548 6.34533317-14.17294548 14.17333298v163.6531959C.00052083 185.6546935 6.34530651 192 14.17346631 192h163.65852924c7.8279998 0 14.17333298-6.3453065 14.17333298-14.17346631V14.17333778c0-7.8279998-6.34533317-14.17333298-14.17333298-14.17333298" />
</svg>