<svg class="icon" viewBox="0 0 1000 1000"
    xmlns="http://www.w3.org/2000/svg"
    width="36" height="36">
    <path
        d="M 1000 500 C 1000 776.142 776.142 1000 500 1000 C 223.858 1000 0 776.142 0 500 C 0 223.858 223.858 0 500 0 C 776.142 0 1000 223.858 1000 500 Z M 226.328 494.722 C 202.659 504.135 190.26 513.343 189.132 522.346 C 186.964 539.633 211.851 545.014 243.164 555.192 C 268.693 563.491 303.034 573.199 320.887 573.585 C 337.081 573.935 355.155 567.259 375.11 553.556 C 511.298 461.625 581.599 415.159 586.012 414.157 C 589.126 413.45 593.441 412.562 596.365 415.16 C 599.288 417.759 599.001 422.68 598.691 424 C 596.215 434.556 468.282 550.921 460.919 558.569 C 432.786 587.789 400.784 605.669 450.15 638.2 C 492.866 666.349 517.727 684.306 561.733 713.153 C 589.856 731.588 611.905 753.449 640.941 750.777 C 654.301 749.548 668.102 736.984 675.111 699.515 C 691.675 610.965 724.234 419.102 731.759 340.041 C 732.418 333.114 731.589 324.249 730.923 320.357 C 730.257 316.466 728.865 310.921 723.806 306.817 C 717.816 301.956 708.568 300.931 704.431 301.004 C 685.625 301.335 656.773 311.367 517.917 369.122 C 469.285 389.35 372.089 431.217 226.328 494.722 Z" />
</svg>