<svg class="icon" viewBox="0 0 1264 1024" version="1.1"
  xmlns="http://www.w3.org/2000/svg" xmlns:xlink="http://www.w3.org/1999/xlink"
  width="36" height="36">
  <path stroke="null" id="svg_1" d="m1001.74988,62.733538c-17.36442,-14.725028 -44.638135,-16.831911 -72.837952,-5.510309l-0.046305,0c-29.658429,11.900416 -839.534961,359.281419 -872.504205,373.473938c-5.996513,2.08373 -58.367603,21.624491 -52.973056,65.151302c4.815732,39.243588 46.907086,55.496685 52.046954,57.372042l205.895712,70.499544c13.66001,45.471627 64.016827,213.235073 75.153208,249.075235c6.945768,22.34222 18.267369,51.699665 38.109113,57.742483c17.410725,6.714242 34.728839,0.578814 45.934678,-8.219159l125.880466,-116.758358l203.210015,158.47927l4.838885,2.89407c13.798925,6.112276 27.019037,9.168414 39.637182,9.168414c9.747228,0 19.100862,-1.829052 28.03775,-5.487157c30.445616,-12.502382 42.623862,-41.512539 43.897253,-44.800203l151.78818,-788.969771c9.261024,-42.137658 -3.611799,-63.576928 -16.067876,-74.111343zm-558.833329,589.186334l-69.457679,185.220476l-69.457679,-231.525595l532.508869,-393.593512l-393.593512,439.898631z"/>
 </g>
</svg>