<svg xmlns="http://www.w3.org/2000/svg" xmlns:xlink="http://www.w3.org/1999/xlink" width="35px" height="35px" viewBox="0 0 35 35" version="1.1">
<g id="surface1">
<path style=" stroke:none;fill-rule:nonzero;fill:rgb(17.254902%,71.764706%,25.882353%);fill-opacity:1;" d="M 0 35 L 3.011719 25.96875 C 1.484375 23.402344 0.601562 20.402344 0.601562 17.199219 C 0.601562 7.699219 8.304688 0 17.800781 0 C 27.300781 0 35 7.699219 35 17.199219 C 35 26.695312 27.300781 34.398438 17.800781 34.398438 C 14.910156 34.398438 12.191406 33.679688 9.800781 32.421875 Z M 0 35 "/>
<path style=" stroke:none;fill-rule:nonzero;fill:rgb(100%,100%,100%);fill-opacity:1;" d="M 28.773438 22.921875 C 27.980469 21.421875 25.050781 19.703125 25.050781 19.703125 C 24.390625 19.328125 23.589844 19.285156 23.210938 19.957031 C 23.210938 19.957031 22.261719 21.097656 22.019531 21.265625 C 20.914062 22.011719 19.886719 21.984375 18.855469 20.949219 L 14.050781 16.144531 C 13.015625 15.113281 12.988281 14.085938 13.734375 12.980469 C 13.902344 12.738281 15.042969 11.789062 15.042969 11.789062 C 15.714844 11.410156 15.671875 10.609375 15.296875 9.949219 C 15.296875 9.949219 13.578125 7.019531 12.078125 6.226562 C 11.441406 5.886719 10.65625 6.007812 10.144531 6.515625 L 9.085938 7.578125 C 5.71875 10.941406 7.375 14.742188 10.742188 18.109375 L 13.816406 21.183594 L 16.894531 24.257812 C 20.257812 27.625 24.058594 29.28125 27.421875 25.917969 L 28.484375 24.855469 C 28.996094 24.34375 29.113281 23.558594 28.773438 22.921875 Z M 28.773438 22.921875 "/>
</g>
</svg>