<svg class="icon" viewBox="0 0 234.66667 165.33333"
    xmlns="http://www.w3.org/2000/svg"
    width="36" height="36">
    <path
        d="M229.763 25.817c4.904 18.419 4.904 56.85 4.904 56.85s0 38.429-4.904 56.85c-2.699 10.162-10.65 18.164-20.747 20.881-18.3 4.935-91.683 4.935-91.683 4.935s-73.382 0-91.682-4.935c-10.097-2.717-18.049-10.719-20.747-20.881C0 121.096 0 82.667 0 82.667s0-38.431 4.904-56.85C7.602 15.655 15.554 7.652 25.651 4.936 43.951 0 117.333 0 117.333 0s73.383 0 91.683 4.936c10.097 2.716 18.048 10.719 20.747 20.881Zm-136.43 91.741 61.334-34.89-61.334-34.893Z" />
</svg>