<svg
  class="icon" style="" viewBox="0 0 36 36" version="1.1" width="36"
  height="36" id="svg8">
  <path
      style=""
      d="m 1.8724447,28.346305 c -1.89825625,-2.287259 -1.89825625,-18.4053514 0,-20.6926103 C 3.0356132,6.2521624 5.4948113,6 18,6 35.952296,6 35.5,5.6898541 35.5,18 35.5,30.310146 35.952296,30 18,30 5.4948113,30 3.0356132,29.747838 1.8724447,28.346305 Z M 19.113845,20.815859 C 21.25123,19.614581 23,18.347445 23,18 23,17.348349 15.706815,13 14.613845,13 14.27623,13 14,15.25 14,18 c 0,2.75 0.27623,5 0.613845,5 0.337616,0 2.362616,-0.982863 4.5,-2.184141 z"
      id="rect824"/>
</svg>
